#N canvas 682 95 661 526 10;
#X declare -lib mrpeach;
#X obj 223 103 import mrpeach;
#X obj 41 -14 udpreceive 5050;
#X obj 41 23 unpackOSC;
#X obj 41 60 pipelist;
#X obj 41 97 routeOSC /p /b;
#X obj 44 202 unpack 0 0 0 0 0 0 0 0;
#X obj 228 203 unpack 0 0 0 0 0;
#X obj 228 294 tgl 50 0 empty empty empty 17 7 0 15 -262144 -1 -1 0
1;
#X obj 328 279 tgl 25 0 empty empty empty 17 7 0 10 -262144 -1 -1 0
1;
#X obj 354 306 tgl 25 0 empty empty empty 17 7 0 10 -262144 -1 -1 0
1;
#X obj 327 332 tgl 25 0 empty empty empty 17 7 0 10 -262144 -1 -1 0
1;
#X obj 302 305 tgl 25 0 empty empty empty 17 7 0 10 -262144 -1 -1 0
1;
#X obj 44 237 knob 32 32 0 1 0 0 empty empty empty 0 -8 0 8 -262144
-1 -1 801 1;
#X obj 82 237 knob 32 32 0 1 0 0 empty empty empty 0 -8 0 8 -262144
-1 -1 1349 1;
#X obj 120 237 knob 32 32 0 1 0 0 empty empty empty 0 -8 0 8 -262144
-1 -1 1583 1;
#X obj 157 237 knob 32 32 0 1 0 0 empty empty empty 0 -8 0 8 -262144
-1 -1 1453 1;
#X obj 41 134 s pots;
#X obj 44 169 r pots;
#X obj 44 320 unpack 0 0 0 0 0 0 0 0;
#X obj 44 355 knob 32 32 0 1 0 0 empty empty empty 0 -8 0 8 -262144
-1 -1 1020 1;
#X obj 82 355 knob 32 32 0 1 0 0 empty empty empty 0 -8 0 8 -262144
-1 -1 1127 1;
#X obj 120 355 knob 32 32 0 1 0 0 empty empty empty 0 -8 0 8 -262144
-1 -1 1593 1;
#X obj 157 355 knob 32 32 0 1 0 0 empty empty empty 0 -8 0 8 -262144
-1 -1 1517 1;
#X obj 44 287 r pots;
#X obj 88 133 s buttons;
#X obj 228 173 r buttons;
#X connect 1 0 2 0;
#X connect 2 0 3 0;
#X connect 3 0 4 0;
#X connect 4 0 16 0;
#X connect 4 1 24 0;
#X connect 5 0 12 0;
#X connect 5 1 13 0;
#X connect 5 2 14 0;
#X connect 5 3 15 0;
#X connect 6 0 7 0;
#X connect 6 1 8 0;
#X connect 6 2 9 0;
#X connect 6 3 10 0;
#X connect 6 4 11 0;
#X connect 17 0 5 0;
#X connect 18 4 19 0;
#X connect 18 5 20 0;
#X connect 18 6 21 0;
#X connect 18 7 22 0;
#X connect 23 0 18 0;
#X connect 25 0 6 0;
